<svg id="visual" viewBox="0 0 820 200" width="820" height="200" xmlns="http://www.w3.org/2000/svg" xmlns:xlink="http://www.w3.org/1999/xlink" version="1.1"><rect x="0" y="0" width="820" height="200" fill="#F8F9FB"></rect><defs><linearGradient id="grad1_0" x1="75%" y1="0%" x2="100%" y2="100%"><stop offset="-30%" stop-color="#4b5468" stop-opacity="1"></stop><stop offset="130%" stop-color="#4b5468" stop-opacity="1"></stop></linearGradient></defs><defs><linearGradient id="grad1_1" x1="75%" y1="0%" x2="100%" y2="100%"><stop offset="-30%" stop-color="#4b5468" stop-opacity="1"></stop><stop offset="130%" stop-color="#F8F9FB" stop-opacity="1"></stop></linearGradient></defs><defs><linearGradient id="grad2_0" x1="0%" y1="0%" x2="25%" y2="100%"><stop offset="-30%" stop-color="#4b5468" stop-opacity="1"></stop><stop offset="130%" stop-color="#4b5468" stop-opacity="1"></stop></linearGradient></defs><defs><linearGradient id="grad2_1" x1="0%" y1="0%" x2="25%" y2="100%"><stop offset="-30%" stop-color="#F8F9FB" stop-opacity="1"></stop><stop offset="130%" stop-color="#4b5468" stop-opacity="1"></stop></linearGradient></defs><g transform="translate(820, 0)"><path d="M0 200C-25.1 204.6 -50.2 209.2 -61.8 190.2C-73.4 171.2 -71.5 128.6 -78.2 107.6C-84.9 86.6 -100.2 87.4 -111.6 81.1C-123 74.9 -130.5 61.7 -144.6 47C-158.6 32.3 -179.3 16.1 -200 0L0 0Z" fill="#a1a5b1"></path><path d="M0 100C-12.6 102.3 -25.1 104.6 -30.9 95.1C-36.7 85.6 -35.7 64.3 -39.1 53.8C-42.4 43.3 -50.1 43.7 -55.8 40.6C-61.5 37.4 -65.2 30.8 -72.3 23.5C-79.3 16.1 -89.7 8.1 -100 0L0 0Z" fill="#4b5468"></path></g><g transform="translate(0, 200)"><path d="M0 -200C20.8 -190.3 41.7 -180.5 52.2 -160.7C62.8 -140.9 63.1 -111 71.1 -97.9C79.1 -84.7 94.9 -88.3 118.9 -86.4C143 -84.5 175.3 -77.1 190.2 -61.8C205.1 -46.5 202.6 -23.2 200 0L0 0Z" fill="#a1a5b1"></path><path d="M0 -100C10.4 -95.1 20.8 -90.3 26.1 -80.4C31.4 -70.5 31.5 -55.5 35.6 -48.9C39.6 -42.4 47.4 -44.2 59.5 -43.2C71.5 -42.2 87.7 -38.6 95.1 -30.9C102.6 -23.2 101.3 -11.6 100 0L0 0Z" fill="#4b5468"></path></g></svg>