<svg width="92" height="95" viewBox="0 0 92 95" fill="none" xmlns="http://www.w3.org/2000/svg">
<path d="M52.2958 22.1568C52.8468 22.1568 53.1683 21.7938 53.2605 21.2929C54.6859 13.7417 54.6388 13.5592 62.5895 12.0121C63.1404 11.9209 63.462 11.6472 63.462 11.1017C63.462 10.5096 63.1404 10.2378 62.5895 10.1466C54.6388 8.55483 54.6859 8.41895 53.2605 0.865772C53.1683 0.364944 52.8487 0 52.2958 0C51.7449 0 51.4684 0.364944 51.3762 0.865772C49.9057 8.41701 49.9979 8.55289 42.0021 10.1447C41.4963 10.2378 41.1296 10.5096 41.1296 11.1017C41.1296 11.6472 41.4963 11.9209 42.0021 12.0121C50.0449 13.5592 49.9057 13.7398 51.3762 21.2929C51.4684 21.7938 51.7449 22.1568 52.2958 22.1568ZM74.3086 52.915C75.1341 52.915 75.7321 52.3229 75.8242 51.4591C77.3398 39.2664 77.9379 38.9015 90.3922 36.9914C91.402 36.8089 92 36.3546 92 35.4442C92 34.5804 91.402 34.033 90.5746 33.8971C78.03 31.5308 77.3398 31.622 75.8242 19.4294C75.7321 18.5656 75.1341 17.9735 74.3086 17.9735C73.4341 17.9735 72.8381 18.5656 72.7459 19.3847C71.1381 31.7133 70.7225 32.1228 57.9936 33.8971C57.1662 33.9883 56.5701 34.5804 56.5701 35.4442C56.5701 36.3081 57.1662 36.8089 57.9936 36.9914C70.7225 39.3111 71.1832 39.3577 72.7459 51.5503C72.7812 51.9323 72.9628 52.2864 73.2533 52.5401C73.5439 52.7938 73.9214 52.9279 74.3086 52.915ZM39.7042 95C56.3388 95 69.6206 86.6723 75.9615 72.6608C76.7438 70.9778 76.6046 69.5219 75.7791 68.7473C75.0439 68.066 73.7557 67.9747 72.3322 68.4756C68.6088 69.9314 64.2443 70.6594 59.2347 70.6594C38.3729 70.6594 25.046 57.7369 25.046 37.5815C25.046 31.8491 26.1479 26.3459 27.5733 23.5253C28.3537 21.9335 28.3537 20.5669 27.6635 19.7012C26.8381 18.7927 25.3675 18.6568 23.5755 19.3382C9.46626 24.8414 0 39.676 0 56.3256C0 78.4824 16.4973 95 39.7042 95Z" fill="#3A4150"/>
</svg>
