<svg id="visual" viewBox="0 0 900 200" width="900" height="200" xmlns="http://www.w3.org/2000/svg" xmlns:xlink="http://www.w3.org/1999/xlink" version="1.1"><rect x="0" y="0" width="900" height="200" fill="#2e3440"></rect><path d="M0 34L21.5 29.7C43 25.3 86 16.7 128.8 19.2C171.7 21.7 214.3 35.3 257.2 46.7C300 58 343 67 385.8 64C428.7 61 471.3 46 514.2 63.2C557 80.3 600 129.7 642.8 137.5C685.7 145.3 728.3 111.7 771.2 98.7C814 85.7 857 93.3 878.5 97.2L900 101L900 201L878.5 201C857 201 814 201 771.2 201C728.3 201 685.7 201 642.8 201C600 201 557 201 514.2 201C471.3 201 428.7 201 385.8 201C343 201 300 201 257.2 201C214.3 201 171.7 201 128.8 201C86 201 43 201 21.5 201L0 201Z" fill="#292e39" stroke-linecap="round" stroke-linejoin="miter"></path></svg>