<svg id="visual" viewBox="0 0 900 200" width="900" height="200" xmlns="http://www.w3.org/2000/svg" xmlns:xlink="http://www.w3.org/1999/xlink" version="1.1"><rect x="0" y="0" width="900" height="200" fill="#292e39"></rect><path d="M0 130L21.5 124C43 118 86 106 128.8 115.7C171.7 125.3 214.3 156.7 257.2 156.8C300 157 343 126 385.8 115.7C428.7 105.3 471.3 115.7 514.2 117.3C557 119 600 112 642.8 94.5C685.7 77 728.3 49 771.2 43.3C814 37.7 857 54.3 878.5 62.7L900 71L900 201L878.5 201C857 201 814 201 771.2 201C728.3 201 685.7 201 642.8 201C600 201 557 201 514.2 201C471.3 201 428.7 201 385.8 201C343 201 300 201 257.2 201C214.3 201 171.7 201 128.8 201C86 201 43 201 21.5 201L0 201Z" fill="#2e3440" stroke-linecap="round" stroke-linejoin="miter"></path></svg>