<svg width="303" height="252" viewBox="0 0 303 252" fill="none" xmlns="http://www.w3.org/2000/svg">
<path d="M264.563 180.849C269.682 186.11 273.629 191.323 277.91 197.209C280.479 200.742 282.097 201.898 281.767 206.191C281.638 207.872 280.989 208.95 280.021 210.274C278.968 211.715 278.676 214.095 277.515 215.314C276.158 216.739 273.34 216.804 271.546 216.834C268.938 216.878 266.62 218.145 264 218.383C258.928 218.844 254.488 221.266 249.527 222.24C241.578 223.802 233.84 224.944 225.706 224.944C223.092 224.944 219.925 224.476 217.371 225.169C215.748 225.61 215.678 226.975 214.668 227.985C213.307 229.346 210.967 230.185 209.262 230.8C205.214 232.261 200.877 234.082 196.676 235.052C193.483 235.789 191.861 238.665 188.848 239.67C184.543 241.105 180.051 241.137 175.586 241.669C170.445 242.281 165.47 243.54 160.268 243.696C153.243 243.908 145.629 245.356 138.756 243.302C136.413 242.602 134.349 241.128 131.998 240.374C129.859 239.688 127.409 240.042 125.381 239.107C121.507 237.319 118.537 234.479 114.879 232.377C113.568 231.624 111.885 231.44 110.43 231.138C108.901 230.821 107.587 229.596 106.263 228.801C103.31 227.03 99.2741 228.139 95.9851 227.956C91.7245 227.72 87.4306 227.061 83.1172 226.971C79.6678 226.899 76.2056 226.971 72.7553 226.971C69.1499 226.971 65.6483 226.44 62.0556 226.182C57.6531 225.867 52.8675 226.579 48.5119 225.873C45.344 225.359 42.2163 222.142 39.7268 220.298C36.7448 218.089 33.3805 215.491 30.9699 212.667C28.5808 209.868 26.0671 207.13 23.5363 204.445C19.8857 200.572 19.7632 195.534 19.7632 190.535C19.7632 185.729 19.9792 180.879 19.5098 176.091C19.0073 170.965 18.6221 165.316 20.5517 160.463C21.8171 157.281 24.0537 156.817 23.7053 152.636C23.1997 146.569 19.1707 142.346 15.4833 137.768C13.6732 135.521 12.1802 133.06 10.1616 130.983C9.29517 130.091 7.30191 128.654 7.12061 127.294C6.55304 123.037 8.00102 119.879 11.2034 117.045C15.1595 113.543 21.365 112.342 26.0423 109.949C28.1159 108.888 30.1845 108.283 31.8991 106.655C33.4855 105.147 36.0724 105.789 38.0092 104.937C41.1762 103.544 39.2852 96.9968 42.9649 95.4198C45.4249 94.3655 47.8383 95.2523 48.8216 91.6467C50.879 84.1029 48.9639 75.9189 49.6945 68.248C49.9399 65.6716 49.3234 60.85 50.7926 58.7026C52.8179 55.7427 56.5342 56.4689 59.4088 55.1548C61.0109 54.4224 62.876 54.5226 64.5334 53.8596C66.6785 53.0015 68.4315 51.2199 70.4464 50.0865C78.3708 45.629 88.3564 44.7492 97.1959 42.7093C108.693 40.0561 120.24 40.4567 131.97 40.4567C138.01 40.4567 143.913 41.2192 149.935 41.4422C154.983 41.6292 159.281 41.5566 163.084 37.7536C166.517 34.3206 168.924 30.2346 171.869 26.4343C176.574 20.3635 183.272 17.2389 189.721 13.3693C195.446 9.93438 202.061 8.71286 208.586 7.62525C214.154 6.69737 221.59 6.65208 226.945 8.52628C238.539 12.5842 246.578 24.079 253.019 33.8116C257.107 39.9898 259.426 47.5648 261.635 54.5917C264.342 63.2069 264.942 72.7328 268.308 81.0596C270.198 85.7354 268.381 91.0205 269.857 95.8703C270.441 97.7891 269.464 100.295 270.251 102.065C271.408 104.668 271.128 109.799 267.379 109.358C265.624 109.151 268.484 108.895 268.956 108.992C271.84 109.583 274.941 111.59 277.572 112.906C282.697 115.468 286.296 121.307 291.707 123.183C293.301 123.736 295.909 123.732 295.987 125.83C296.08 128.35 295.669 130.688 295.198 133.151C294.582 136.377 294.616 139.536 293.284 142.611C292.578 144.24 291.33 145.505 290.383 147.004C287.205 152.036 284.696 157.422 281.373 162.406C280.405 163.859 279.27 165.285 278.191 166.658C276.724 168.526 274.282 168.004 272.898 169.586C271.357 171.347 270.389 172.93 269.35 175.077C268.608 176.61 267.055 178.173 266.647 179.807C266.103 181.984 264.449 179.621 263.549 178.822" stroke="#88C0D0" stroke-width="14" stroke-linecap="round"/>
<path d="M231.112 139.796C231.33 142.839 234.033 146.248 231.478 148.356C228.372 150.919 226.005 154.709 223.622 157.929C221.474 160.833 220.876 162.096 217.259 162.096C213.906 162.096 212.313 164.9 210.332 167.165" stroke="#88C0D0" stroke-width="14" stroke-linecap="round"/>
<path d="M242.262 119.522C242.75 115.617 245.467 113.157 248.907 111.695C253.083 109.92 258.384 106.852 263.042 106.852" stroke="#88C0D0" stroke-width="14" stroke-linecap="round"/>
<path d="M263.043 106.852H263.55" stroke="#88C0D0" stroke-width="14" stroke-linecap="round"/>
<path d="M156.102 42.4839C156.281 48.1527 154.979 62.0861 163.028 63.1514C164.936 63.404 166.862 63.4979 168.772 63.7709" stroke="#88C0D0" stroke-width="14" stroke-linecap="round"/>
<path d="M77.0349 159.055C72.4642 150.745 69.1565 141.316 58.4229 141.316C51.4211 141.316 49.149 143.098 45.7802 148.553C42.7098 153.524 40.6724 159.239 38.5156 164.631" stroke="#88C0D0" stroke-width="8" stroke-linecap="round"/>
<path d="M138.869 167.671C139.078 163.829 140.317 158.915 138.052 155.479C136.82 153.609 135.632 151.653 134.195 149.932C133.055 148.569 131.169 144.357 129.239 144.357C123.19 144.357 117.049 143.488 112.063 147.567C107.851 151.013 106.896 155.971 106.432 161.083" stroke="#88C0D0" stroke-width="8" stroke-linecap="round"/>
</svg>
