<svg id="visual" viewBox="0 0 900 200" width="900" height="200" xmlns="http://www.w3.org/2000/svg" xmlns:xlink="http://www.w3.org/1999/xlink" version="1.1"><rect x="0" y="0" width="900" height="200" fill="#292e39"></rect><path d="M0 89L37.5 94.5C75 100 150 111 225 116C300 121 375 120 450 112.7C525 105.3 600 91.7 675 93C750 94.3 825 110.7 862.5 118.8L900 127L900 201L862.5 201C825 201 750 201 675 201C600 201 525 201 450 201C375 201 300 201 225 201C150 201 75 201 37.5 201L0 201Z" fill="#2e3440" stroke-linecap="round" stroke-linejoin="miter"></path></svg>